<?xml version="1.0" encoding="UTF-8" standalone="no"?>
<svg
   viewBox="0 0 576 576"
   fill="currentColor"
   class="w-6 h-6"
   version="1.1"
   id="svg1"
   width="576"
   height="576"
   xmlns="http://www.w3.org/2000/svg"
   xmlns:svg="http://www.w3.org/2000/svg">
  <defs
     id="defs1" />
  <path
     fill-rule="evenodd"
     d="m 12,1.5 c 0.414214,0 0.75,0.3357864 0.75,0.75 V 4.5 c 0,0.9999996 -1.5,0.9999996 -1.5,0 V 2.25 C 11.25,1.8357864 11.585786,1.5 12,1.5 Z M 5.636,4.136 c 0.2928175,-0.2924534 0.7671825,-0.2924534 1.06,0 L 8.288,5.727 C 8.9704174,6.4342168 7.933573,7.4700839 7.227,6.787 L 5.636,5.197 C 5.3428802,4.904068 5.3428802,4.428932 5.636,4.136 Z m 12.728,0 c 0.292453,0.2928175 0.292453,0.7671825 0,1.06 L 16.773,6.788 C 16.065783,7.4704174 15.029916,6.433573 15.713,5.727 l 1.59,-1.591 c 0.292932,-0.2931198 0.768068,-0.2931198 1.061,0 z M 3,10.5 C 3,10.085786 3.3357864,9.75 3.75,9.75 H 6 c 0.9999996,0 0.9999996,1.5 0,1.5 H 3.75 C 3.3357864,11.25 3,10.914214 3,10.5 Z m 14.25,0 c 0,-0.414214 0.335786,-0.75 0.75,-0.75 h 2.25 c 1,0 1,1.5 0,1.5 H 18 c -0.414214,0 -0.75,-0.335786 -0.75,-0.75 z m -8.962,3.712 c 0.2931198,0.292932 0.2931198,0.768068 0,1.061 L 6.697,16.864 C 5.990454,17.596222 4.9044443,16.511236 5.636,15.804 l 1.591,-1.592 c 0.2928175,-0.292453 0.7671825,-0.292453 1.06,0 z"
     clip-rule="evenodd"
     id="path1" />
</svg>
